<?xml version="1.0" encoding="UTF-8"?>
<svg id="Layer_2" data-name="Layer 2" xmlns="http://www.w3.org/2000/svg" viewBox="0 0 444.44 273.62">
  <defs>
    <style>
      .cls-1 {
        fill: #878787;
      }

      .cls-2 {
        fill: #606060;
      }

      .cls-3 {
        fill: #6d6d6d;
      }
    </style>
  </defs>
  <g id="Layer_2-2" data-name="Layer 2">
    <g>
      <g>
        <g>
          <rect class="cls-1" x="153.54" width="134.31" height="45.58"/>
          <path class="cls-2" d="M273.62,100.65l-120.08,62.2v-48.42L287.85,45.58v30.29c0,10.22-4.4,19.69-14.23,24.78Z"/>
        </g>
        <rect class="cls-1" x="307.08" width="137.35" height="45.58"/>
        <g>
          <rect class="cls-1" width="134.31" height="45.58"/>
          <path class="cls-3" d="M120.09,100.65L0,162.85v-48.42L134.31,45.58v30.29c0,10.22-4.41,19.69-14.22,24.78Z"/>
        </g>
        <path class="cls-2" d="M307.08,85.41v23.38c0,12.26,9.94,22.2,22.21,22.2h115.15v-45.58h-137.36Z"/>
      </g>
      <g>
        <rect class="cls-3" x="256.08" y="187.15" width="13.06" height="80.64"/>
        <path class="cls-3" d="M166.8,197.96h-17.17c.09-.98,.15-1.97,.15-2.99v-4.64h-44.34v9.28h30.99c-.82,4.7-6.59,18.48-33.5,26.44l3.51,7.34s31.16-5.95,40.63-26.16h19.73v8.6h-22.85v9.28h22.85v13.05c-5.03-2.1-11.38-3.33-18.86-3.33-19.93,0-31.93,8.68-31.93,19.4s12,19.39,31.93,19.39,31.93-8.68,31.93-19.37v-67.09h-13.07v10.81h0Zm-18.88,66.37c-11.78,0-18.87-4.52-18.87-10.11s7.09-10.11,18.87-10.11,18.88,4.52,18.88,10.11-7.09,10.11-18.88,10.11Z"/>
        <path class="cls-3" d="M328.91,254.11v-19.55h25.4v-9.28h-51.19v-25.68h51.19v-9.28h-64.28v36.83c0,4.09,3.32,7.41,7.41,7.41h18.4v19.55h-32.83v9.28h78.72v-9.28h-32.82Z"/>
        <path class="cls-3" d="M197.28,199.61h30.7c-1.62,12.97-8.71,34.31-34.12,46.47l4.16,8.21c39.33-14.97,44.14-50.33,44.15-61.17v-2.78h-44.88v9.28h-.01Z"/>
      </g>
    </g>
  </g>
</svg>